<svg id="keurig-logo-svg" viewBox="0 0 141 24" version="1.1" xmlns="http://www.w3.org/2000/svg" xmlns:xlink="http://www.w3.org/1999/xlink">
  <title id="k-title">keurig</title>
  <g id="Artboard" stroke="none" stroke-width="1" fill="none" fill-rule="evenodd">
    <g id="keurig-vector-logo" fill="#000000" fill-rule="nonzero">
      <path d="M27.4252427,0.582524272 L43.6893204,0.582524272 L43.6893204,5.33592233 L33.3436893,5.33592233 L33.3436893,9.4368932 L42.8970874,9.4368932 L42.8970874,14.2368932 L33.3436893,14.2368932 L33.3436893,18.7339806 L43.6893204,18.7339806 L43.6893204,23.4873786 L27.4252427,23.4873786 L27.4252427,0.582524272 Z M63.961165,16.0543689 C63.961165,17.8718447 62.9592233,18.8737864 60.0466019,18.8737864 C57.1339806,18.8737864 56.1786408,17.8485437 56.1786408,16.0543689 L56.1786408,0.582524272 L50.2834951,0.582524272 L50.2834951,16.7067961 C50.2834951,20.3184466 52.4970874,23.9300971 60.0699029,23.9300971 C67.6893204,23.9300971 69.9029126,20.3184466 69.9029126,16.7067961 L69.9029126,0.582524272 L64.007767,0.582524272 L64.007767,16.0543689 L63.961165,16.0543689 Z M104.085437,23.4873786 L109.980583,23.4873786 L109.980583,0.582524272 L104.085437,0.582524272 L104.085437,23.4873786 Z M130.159223,12.1631068 L130.159223,18.5941748 C129.11068,18.7805825 127.92233,18.8970874 126.640777,18.8970874 C123.61165,18.8970874 123.029126,17.8485437 123.029126,15.8912621 L123.029126,7.99223301 C123.029126,5.87184466 124.054369,5.17281553 126.547573,5.17281553 C128.970874,5.17281553 131.627184,5.42912621 134.423301,5.82524272 L134.959223,0.885436893 C132.046602,0.302912621 129.320388,0.0932038835 126.664078,0.0932038835 C119.930097,0.0932038835 117.11068,2.37669903 117.11068,7.22330097 L117.11068,16.7533981 C117.11068,21.3436893 119.673786,23.8834951 126.500971,23.8834951 C129.530097,23.8834951 132.792233,23.4873786 135.58835,22.6951456 L135.58835,12.1165049 L130.159223,12.1165049 L130.159223,12.1631068 Z M3.79805825,8.43495146 C1.81747573,8.43495146 0.209708738,10.0427184 0.209708738,12.0466019 C0.209708738,14.0271845 1.81747573,15.6582524 3.79805825,15.6582524 C5.77864078,15.6582524 7.38640777,14.0504854 7.38640777,12.0466019 C7.38640777,10.0427184 5.77864078,8.43495146 3.79805825,8.43495146 M3.79805825,0.139805825 C1.81747573,0.139805825 0.209708738,1.74757282 0.209708738,3.75145631 C0.209708738,5.73203883 1.81747573,7.3631068 3.79805825,7.3631068 C5.77864078,7.3631068 7.38640777,5.75533981 7.38640777,3.75145631 C7.38640777,1.74757282 5.77864078,0.139805825 3.79805825,0.139805825 M3.79805825,16.7300971 C1.81747573,16.7300971 0.209708738,18.3378641 0.209708738,20.3417476 C0.209708738,22.3223301 1.81747573,23.9533981 3.79805825,23.9533981 C5.77864078,23.9533981 7.38640777,22.3456311 7.38640777,20.3417476 C7.38640777,18.3378641 5.77864078,16.7300971 3.79805825,16.7300971 M21.8330097,0.582524272 L15.192233,0.582524272 L8.45825243,12.0466019 L15.192233,23.5106796 L21.8097087,23.5106796 L14.8660194,12.0466019 L21.8330097,0.582524272 Z M93.3203883,15.8213592 L97.9572816,23.4873786 L91.3398058,23.4873786 L87.6582524,17.0097087 L83.1378641,17.0097087 L83.1378641,23.4873786 L77.2427184,23.4873786 L77.2427184,0.582524272 L88.0776699,0.582524272 C94.2524272,0.582524272 96.2330097,3.00582524 96.2330097,7.2 L96.2330097,10.415534 C96.2097087,13.0019417 95.5106796,14.5165049 93.3203883,15.8213592 L93.3203883,15.8213592 Z M90.5009709,7.45631068 C90.5009709,5.96504854 89.8019417,5.33592233 88.031068,5.33592233 L83.1378641,5.33592233 L83.1378641,12.3495146 L87.8912621,12.3495146 C89.7786408,12.3495146 90.5009709,11.6504854 90.5009709,10.1126214 L90.5009709,7.45631068 L90.5009709,7.45631068 Z M138.500971,0.25631068 C137.662136,0.25631068 136.986408,0.932038835 136.986408,1.79417476 C136.986408,2.63300971 137.662136,3.33203883 138.500971,3.33203883 C139.339806,3.33203883 140.015534,2.63300971 140.015534,1.79417476 C140.038835,0.932038835 139.339806,0.25631068 138.500971,0.25631068 M138.500971,3.1223301 C137.75534,3.1223301 137.172816,2.51650485 137.172816,1.77087379 C137.172816,1.02524272 137.778641,0.442718447 138.500971,0.442718447 C139.223301,0.442718447 139.829126,1.04854369 139.829126,1.77087379 C139.829126,2.51650485 139.246602,3.1223301 138.500971,3.1223301 M138.594175,1.98058252 L138.24466,1.98058252 L138.24466,2.46990291 L138.034951,2.46990291 L138.034951,1.02524272 L138.594175,1.02524272 C138.897087,1.02524272 139.036893,1.16504854 139.036893,1.39805825 L139.036893,1.60776699 C139.036893,1.77087379 138.990291,1.86407767 138.827184,1.93398058 L139.223301,2.44660194 L138.96699,2.44660194 L138.594175,1.98058252 Z M138.594175,1.21165049 L138.24466,1.21165049 L138.24466,1.79417476 L138.594175,1.79417476 C138.757282,1.79417476 138.827184,1.72427184 138.827184,1.60776699 L138.827184,1.39805825 C138.827184,1.25825243 138.757282,1.21165049 138.594175,1.21165049" id="Shape"></path>
    </g>
  </g>
</svg>